<svg xmlns="http://www.w3.org/2000/svg" viewBox="0 0 110 60">
  <!-- Keyboard outline -->
  <rect x="5" y="5" width="100" height="50" rx="5" ry="5" fill="#e0e0e0" stroke="#333" stroke-width="2"/>
  
  <!-- Keys -->
  <rect x="10" y="10" width="10" height="10" rx="2" ry="2" fill="#000" stroke="#333"/>
  <rect x="25" y="10" width="10" height="10" rx="2" ry="2" fill="#000" stroke="#333"/>
  <rect x="40" y="10" width="10" height="10" rx="2" ry="2" fill="#000" stroke="#333"/>
  <rect x="55" y="10" width="10" height="10" rx="2" ry="2" fill="#000" stroke="#333"/>
  <rect x="70" y="10" width="10" height="10" rx="2" ry="2" fill="#000" stroke="#333"/>
  <rect x="85" y="10" width="10" height="10" rx="2" ry="2" fill="#000" stroke="#333"/>
  
  <rect x="10" y="25" width="10" height="10" rx="2" ry="2" fill="#000" stroke="#333"/>
  <rect x="25" y="25" width="10" height="10" rx="2" ry="2" fill="#000" stroke="#333"/>
  <rect x="40" y="25" width="10" height="10" rx="2" ry="2" fill="#000" stroke="#333"/>
  <rect x="55" y="25" width="10" height="10" rx="2" ry="2" fill="#000" stroke="#333"/>
  <rect x="70" y="25" width="10" height="10" rx="2" ry="2" fill="#000" stroke="#333"/>
  <rect x="85" y="25" width="10" height="10" rx="2" ry="2" fill="#000" stroke="#333"/>
  
  <!-- Space bar -->
  <rect x="25" y="40" width="60" height="10" rx="2" ry="2" fill="#000" stroke="#333"/>
</svg>